<svg xmlns="http://www.w3.org/2000/svg" viewBox="0 0 116.8 116.8"><path d="M22.4,8h72a14.4,14.4,0,0,1,14.4,14.4v72a14.4,14.4,0,0,1-14.4,14.4h-72A14.4,14.4,0,0,1,8,94.4v-72A14.4,14.4,0,0,1,22.4,8Z" style="fill:none;stroke:#000;stroke-linecap:round;stroke-linejoin:round;stroke-width:16px"/><path d="M81.217,33.74A6.092,6.092,0,0,1,89.9,42.278l-32.4,40.507a6.089,6.089,0,0,1-8.61.327l-.164-.164L27.231,61.46a6.092,6.092,0,0,1,8.3-8.919c.109.091.2.2.308.309l17,17,28.209-35.93a1.66,1.66,0,0,1,.164-.182Z" style="fill:#08a039"/></svg>