<?xml version="1.0" encoding="utf-8"?>
<!-- Generator: Adobe Illustrator 24.3.0, SVG Export Plug-In . SVG Version: 6.00 Build 0)  -->
<svg version="1.1" id="Layer_1" xmlns="http://www.w3.org/2000/svg" xmlns:xlink="http://www.w3.org/1999/xlink" x="0px" y="0px"
	 viewBox="0 0 800 800" style="enable-background:new 0 0 800 800;" xml:space="preserve">
<style type="text/css">
	.st0{fill:none;stroke:#000000;stroke-width:16;stroke-linecap:round;stroke-linejoin:round;stroke-miterlimit:152.381;}
	.st1{fill:#08A039;}
</style>
<path class="st0" d="M69.6,47.7h72c8,0,14.4,6.4,14.4,14.4v72c0,8-6.4,14.4-14.4,14.4h-72c-8,0-14.4-6.4-14.4-14.4v-72
	C55.2,54.1,61.6,47.7,69.6,47.7z"/>
<path class="st1" d="M128.4,73.4c2.4-2.3,6.3-2.2,8.6,0.2c2.2,2.3,2.2,6,0.1,8.3l-32.4,40.5c-2.3,2.5-6.1,2.6-8.6,0.3
	c-0.1-0.1-0.1-0.1-0.2-0.2l-21.5-21.5c-2.5-2.3-2.6-6.1-0.3-8.6c2.3-2.5,6.1-2.6,8.6-0.3c0.1,0.1,0.2,0.2,0.3,0.3l17,17l28.2-35.9
	C128.3,73.5,128.4,73.5,128.4,73.4L128.4,73.4z"/>
</svg>
